<svg xmlns="http://www.w3.org/2000/svg" viewBox="0 0 68 62.5" x="0px" y="0px"><path fill="#cccccc" d="M274,769 C274.552285,769 275,769.447715 275,770 C275,770.552285 274.552285,771 274,771 L245.000741,771 C240.02974,771 236,766.971359 236,762.001262 L236,735.998738 C236,731.026436 240.023739,727 244.99855,727 L290.00145,727 C294.969649,727 299,731.032319 299,735.999106 L299,746 C299,746.552285 298.552285,747 298,747 C297.447715,747 297,746.552285 297,746 L297,735.999106 C297,732.13667 293.864861,729 290.00145,729 L244.99855,729 C241.128609,729 238,732.130706 238,735.998738 L238,762.001262 C238,765.866668 241.134187,769 245.000741,769 L274,769 Z M296.450056,767.670722 L303.726464,775.312795 C304.105996,775.71401 304.08842,776.346931 303.687205,776.726464 C303.28599,777.105996 302.653069,777.08842 302.273536,776.687205 L294.973641,769.020464 C293.306859,770.263901 291.239392,771 289,771 C283.477153,771 279,766.522847 279,761 C279,755.477153 283.477153,751 289,751 C294.522847,751 299,755.477153 299,761 C299,763.563139 298.035682,765.90105 296.450056,767.670722 Z M289,769 C293.418278,769 297,765.418278 297,761 C297,756.581722 293.418278,753 289,753 C284.581722,753 281,756.581722 281,761 C281,765.418278 284.581722,769 289,769 Z M275.32607,749.634383 L262.747122,757.633313 C262.081383,758.056656 261.210526,757.578415 261.210526,756.789474 L261.210526,740.789474 C261.210526,740.000478 262.08149,739.522247 262.747224,739.945699 L275.326172,747.946769 C275.943952,748.339719 275.943897,749.241507 275.32607,749.634383 Z M263.210526,742.610693 L263.210526,754.968516 L272.926051,748.790431 L263.210526,742.610693 Z" transform="translate(-236 -727)"/></svg>